<svg width="60" height="60" viewBox="0 0 60 60" fill="none" xmlns="http://www.w3.org/2000/svg">
<g clip-path="url(#clip0_2_826)">
<path fill-rule="evenodd" clip-rule="evenodd" d="M9.61239 54.2126L5.78727 50.3875C4.73543 49.3355 3.01411 49.3357 1.96227 50.3875C0.910306 51.4395 0.910423 53.1607 1.96227 54.2125L5.78739 58.0376C6.83923 59.0895 8.56055 59.0895 9.61239 58.0376C10.6642 56.9858 10.6642 55.2646 9.61239 54.2126Z" fill="#878EAB"/>
<path fill-rule="evenodd" clip-rule="evenodd" d="M5.78174 50.3833L10.8812 45.2839L14.7057 49.1083L9.60622 54.2078L5.78174 50.3833Z" fill="#CD2594"/>
<path fill-rule="evenodd" clip-rule="evenodd" d="M10.8818 45.2839L14.2815 41.8843L18.1059 45.7088L14.7063 49.1084L10.8818 45.2839Z" fill="#B5BACC"/>
<path fill-rule="evenodd" clip-rule="evenodd" d="M14.2876 41.8872L18.1127 45.7122L21.6816 42.1434L25.0817 38.7433L33.5821 30.2429L36.9823 26.8426L33.1572 23.0176L14.2876 41.8872Z" fill="#CD2594"/>
<path fill-rule="evenodd" clip-rule="evenodd" d="M21.6748 42.1416L25.0744 38.742L30.1739 43.8415L26.7743 47.2411L21.6748 42.1416Z" fill="#878EAB"/>
<path fill-rule="evenodd" clip-rule="evenodd" d="M33.5757 30.2436L36.9753 26.844L42.0748 31.9434L38.6751 35.343L33.5757 30.2436Z" fill="#878EAB"/>
<path fill-rule="evenodd" clip-rule="evenodd" d="M33.1514 23.019L36.551 19.6194L40.3755 23.4439L36.9758 26.8435L33.1514 23.019Z" fill="#B5BACC"/>
<path fill-rule="evenodd" clip-rule="evenodd" d="M36.5518 19.6197L42.5012 13.6703L46.3256 17.4948L40.3762 23.4442L36.5518 19.6197Z" fill="#CD2594"/>
<path fill-rule="evenodd" clip-rule="evenodd" d="M42.5077 13.6672L46.3327 17.4923L47.1402 18.2998L50.2427 13.9222L46.0777 9.75721L41.7002 12.8597L42.5077 13.6672Z" fill="#878EAB"/>
<path fill-rule="evenodd" clip-rule="evenodd" d="M46.0776 9.75721L50.2426 13.9222L57.2552 9.28965L50.7103 2.74457L46.0776 9.75721Z" fill="#B5BACC"/>
<path fill-rule="evenodd" clip-rule="evenodd" d="M50.7104 2.74457L57.2554 9.28965L58.8279 1.17207L50.7104 2.74457Z" fill="#92A5B3"/>
<path d="M59.657 0.343682C59.3816 0.0682997 58.9878 -0.0527515 58.6055 0.0218948L50.488 1.59439C50.1788 1.65427 49.9067 1.83602 49.7331 2.09898L45.2215 8.92835L41.0232 11.9039C40.7416 12.1036 40.5622 12.4173 40.533 12.7612C40.5048 13.0951 40.6219 13.424 40.8521 13.6663L27.0479 27.4706C26.5903 27.9282 26.5903 28.6702 27.0479 29.128C27.2768 29.3567 27.5767 29.4712 27.8765 29.4712C28.1764 29.4712 28.4763 29.3567 28.7051 29.128L33.1578 24.6753L35.3256 26.8431L18.1133 44.0551L15.9455 41.8873L21.2477 36.5852C21.7053 36.1276 21.7053 35.3856 21.2477 34.9279C20.7899 34.4704 20.0482 34.4704 19.5903 34.9279L5.65948 48.8587C5.11551 48.5769 4.50745 48.4269 3.87524 48.4269C2.83769 48.4269 1.86424 48.8289 1.13407 49.559C-0.377372 51.0704 -0.377372 53.5299 1.13407 55.0413L4.95919 58.8665C5.71491 59.6222 6.70769 60.0001 7.70036 60.0001C8.69303 60.0001 9.68569 59.6222 10.4415 58.8665C11.6642 57.6438 11.8974 55.8008 11.1418 54.341L21.6822 43.8007L25.9538 48.0723C26.1826 48.301 26.4825 48.4155 26.7824 48.4155C27.0823 48.4155 27.3821 48.301 27.611 48.0723L31.0112 44.6721C31.4688 44.2145 31.4688 43.4725 31.0112 43.0147L26.7396 38.7431L33.5827 31.9001L37.8543 36.1717C38.0741 36.3914 38.3721 36.5149 38.6829 36.5149C38.9937 36.5149 39.2918 36.3914 39.5115 36.1717L42.9116 32.7714C43.3692 32.3138 43.3692 31.5718 42.9116 31.1141L38.64 26.8425L46.3342 19.1483C46.5525 19.3557 46.8411 19.4715 47.1405 19.4715C47.1735 19.4715 47.2064 19.4701 47.2394 19.4674C47.5835 19.4382 47.8971 19.2589 48.0968 18.9772L51.0723 14.7788L57.9017 10.2672C58.1645 10.0936 58.3464 9.82141 58.4063 9.51228L59.9787 1.39482C60.0528 1.01304 59.9322 0.618948 59.657 0.343682ZM16.456 45.7124L14.713 47.4554L12.5453 45.2876L14.2882 43.5448L16.456 45.7124ZM7.44513 50.3878L10.8881 46.9449L13.0558 49.1126L9.61292 52.5555L7.44513 50.3878ZM8.78431 57.2092C8.49698 57.4967 8.11203 57.655 7.70048 57.655C7.28893 57.655 6.90398 57.4967 6.61664 57.2092L2.79152 53.3841C2.19376 52.7864 2.19376 51.8141 2.79152 51.2163C3.07886 50.9289 3.4638 50.7706 3.87536 50.7706C4.28691 50.7706 4.67186 50.9289 4.95919 51.2163L8.78431 55.0415C9.07176 55.3288 9.23008 55.7137 9.23008 56.1253C9.22996 56.537 9.07176 56.9219 8.78431 57.2092ZM28.5253 43.8437L26.7824 45.5866L23.3394 42.1436L25.0823 40.4007L28.5253 43.8437ZM56.5249 6.90165L53.0991 3.47578L57.348 2.65268L56.5249 6.90165ZM50.8973 4.58856L55.4121 9.10343L50.3956 12.4175L47.5834 9.60521L50.8973 4.58856ZM40.383 21.7854L38.2152 19.6176L42.5081 15.3246L44.6759 17.4924L40.383 21.7854ZM40.4259 31.9432L38.683 33.6861L35.24 30.2431L36.9829 28.5002L40.4259 31.9432ZM34.8151 23.0179L36.5579 21.275L38.7257 23.4427L36.9828 25.1855L34.8151 23.0179ZM46.9875 16.4897L43.5111 13.0132L45.949 11.2854L48.7153 14.0518L46.9875 16.4897Z" fill="black"/>
<path d="M24.1471 33.2C24.4471 33.2 24.7468 33.0855 24.9757 32.8567L24.9763 32.8561C25.4339 32.3985 25.4335 31.6568 24.9759 31.1991C24.5183 30.7414 23.776 30.742 23.3183 31.1993C22.8607 31.657 22.8607 32.399 23.3183 32.8567C23.5473 33.0855 23.8471 33.2 24.1471 33.2Z" fill="black"/>
</g>
<defs>
<clipPath id="clip0_2_826">
<rect width="60" height="60" fill="white"/>
</clipPath>
</defs>
</svg>
