<svg width="60" height="60" viewBox="0 0 60 60" fill="none" xmlns="http://www.w3.org/2000/svg">
<g clip-path="url(#clip0_2_843)">
<path d="M20.944 44.3047L15.6953 39.0559C22.3997 29.8329 29.8173 21.1501 37.8799 13.0875L48.2176 2.74979C50.7119 0.255432 54.7558 0.255432 57.2502 2.74979C59.7445 5.24368 59.7445 9.28802 57.2502 11.7824L46.9125 22.1201C38.8499 30.1826 30.1671 37.6003 20.944 44.3047Z" fill="#D97C41"/>
<path d="M41.2491 16.4566L51.5872 6.11893C53.4855 4.22012 56.2816 3.76831 58.6088 4.76028C58.298 4.03015 57.8462 3.34534 57.2502 2.74979C54.7563 0.255432 50.7119 0.255432 48.218 2.74979L37.8799 13.0875C29.8173 21.1501 22.3997 29.8329 15.6953 39.0559L19.0645 42.4251C25.7689 33.2021 33.1865 24.5192 41.2491 16.4566Z" fill="#C76D33"/>
<path d="M15.6953 39.0555L20.944 44.3042L8.69745 56.5508L3.44873 51.302L15.6953 39.0555Z" fill="#E3E3E3"/>
<path d="M3.44824 51.302L15.6948 39.0555L19.0639 42.4246L6.81738 54.6712L3.44824 51.302Z" fill="#D1D1D1"/>
<path d="M10.5896 55.1701L4.82998 49.4106C3.9259 48.5069 2.46059 48.5069 1.55697 49.4106C0.652885 50.3146 0.652885 51.7799 1.55697 52.6836L7.31655 58.4431C8.22018 59.3472 9.68548 59.3472 10.5896 58.4431C11.4932 57.5395 11.4932 56.0738 10.5896 55.1701Z" fill="#D97C41"/>
<path d="M4.92611 52.7797C5.82974 51.8761 7.29549 51.8761 8.19912 52.7797L4.82998 49.4106C3.9259 48.5069 2.46059 48.5069 1.55697 49.4106C0.652885 50.3146 0.652885 51.7799 1.55697 52.6836L4.92611 56.0527C4.02203 55.1491 4.02203 53.6838 4.92611 52.7797Z" fill="#C76D33"/>
<path d="M13.0425 41.7082L15.6948 39.0555L20.9435 44.3042L18.2912 46.9569L13.0425 41.7082Z" fill="#F4F4F4"/>
<path d="M13.0425 41.7082L15.6948 39.0555L19.0639 42.4246L16.4116 45.0774L13.0425 41.7082Z" fill="#E3E3E3"/>
<path d="M7.73779 47.0132L10.3901 44.3605L15.6388 49.6092L12.9865 52.262L7.73779 47.0132Z" fill="#F4F4F4"/>
<path d="M7.73779 47.0132L10.3901 44.3605L13.7592 47.7296L11.1065 50.3824L7.73779 47.0132Z" fill="#E3E3E3"/>
<path d="M57.8719 2.12814C56.4995 0.755768 54.6748 0 52.7339 0C50.7935 0 48.9688 0.755768 47.5964 2.12814L37.2588 12.4658C29.2058 20.5188 21.7264 29.2712 15.027 38.4814L5.05554 48.4529C4.5163 48.0643 3.87085 47.8537 3.19336 47.8537C2.34055 47.8537 1.53854 48.186 0.935211 48.7894C0.332337 49.3922 0 50.1942 0 51.0471C0 51.9003 0.332337 52.7019 0.935211 53.3052L1.23688 53.6069C1.5802 53.9497 2.13638 53.9497 2.47971 53.6069C2.82303 53.2635 2.82303 52.7069 2.47971 52.364L2.17804 52.0624C1.61865 51.5025 1.61865 50.592 2.17804 50.0322C2.44949 49.7612 2.80975 49.6115 3.19336 49.6115C3.57651 49.6115 3.93723 49.7612 4.20822 50.0322L9.9678 55.7918C10.2388 56.0628 10.388 56.423 10.388 56.8066C10.388 57.1902 10.2388 57.5505 9.9678 57.8215C9.40796 58.3813 8.49747 58.3813 7.93762 57.8215L4.74518 54.6295C4.40231 54.2862 3.84567 54.2862 3.50235 54.6295C3.15948 54.9728 3.15948 55.5295 3.50235 55.8723L6.69479 59.0648C7.29767 59.6677 8.09967 60 8.95248 60C9.80576 60 10.6078 59.6677 11.2106 59.0648C11.814 58.4615 12.1458 57.6595 12.1458 56.8066C12.1458 56.1292 11.9357 55.4837 11.5471 54.9445L16.2598 50.2318C16.2602 50.2313 16.2602 50.2313 16.2607 50.2313C16.2607 50.2309 16.2607 50.2309 16.2611 50.2304L21.5186 44.973C30.7288 38.2736 39.4812 30.7942 47.5337 22.7412L48.2176 22.0578C48.5609 21.7145 48.5609 21.1578 48.2176 20.8145C47.8743 20.4716 47.3181 20.4716 46.9748 20.8145L46.2909 21.4984C38.4631 29.3266 29.9689 36.6083 21.0338 43.1516L16.8489 38.9662C23.3917 30.0311 30.6734 21.5369 38.5016 13.7091L48.8393 3.37143C49.8798 2.33093 51.2627 1.75781 52.7339 1.75781C54.2056 1.75781 55.5885 2.33093 56.629 3.37097C57.6691 4.41147 58.2422 5.79483 58.2422 7.26608C58.2422 8.73688 57.6691 10.1202 56.629 11.1607L49.2952 18.4946C48.9519 18.8374 48.9519 19.3941 49.2952 19.7374C49.6381 20.0807 50.1947 20.0807 50.538 19.7374L57.8719 12.4036C59.2442 11.0312 60 9.20654 60 7.26608C60 5.32516 59.2442 3.50052 57.8719 2.12814ZM15.639 48.3669L11.6331 44.361L13.0426 42.9515L17.0485 46.9574L15.639 48.3669ZM12.9863 51.0191L8.98087 47.0137L10.3903 45.6038L14.3962 49.6097L12.9863 51.0191ZM6.32812 49.666L7.73758 48.2565L11.7435 52.2624L10.334 53.6719L6.32812 49.666ZM19.7012 44.3047L18.2918 45.7141L14.2859 41.7082L15.6953 40.2988L19.7012 44.3047Z" fill="black"/>
</g>
<defs>
<clipPath id="clip0_2_843">
<rect width="60" height="60" fill="white"/>
</clipPath>
</defs>
</svg>
