<svg width="60" height="60" viewBox="0 0 60 60" fill="none" xmlns="http://www.w3.org/2000/svg">
<g clip-path="url(#clip0_2_855)">
<path d="M19.5977 36.9463C16.873 38.5194 15.9394 42.0035 17.5125 44.7282L20.7572 50.3482C21.4758 51.5929 21.0493 53.1846 19.8046 53.9032L11.8775 58.4799C10.314 59.3826 8.32862 58.4577 8.01372 56.6799L5.90649 44.7799C5.10513 40.2544 6.94997 35.6676 10.6617 32.9573L10.993 32.7153L19.5977 36.9463Z" fill="#CD2594"/>
<path d="M21.3193 18.6654L51.6182 1.17186L55.1113 7.22188L24.8124 24.7154L21.3193 18.6654Z" fill="#E2E9EE"/>
<path d="M28.8051 31.6304L18.4154 37.6288C16.516 38.7255 14.087 38.0748 12.9904 36.1752L9.47659 30.0892C8.37991 28.1897 9.03068 25.7608 10.9302 24.6641L21.3199 18.6656L28.8051 31.6304Z" fill="#A7BDCD"/>
<path d="M24.8125 24.7153L29.5661 21.9707L32.3107 26.7243L27.5571 29.4689L24.8125 24.7153Z" fill="#C5D3DE"/>
<path d="M29.5659 21.9709L42.9624 14.2362L45.707 18.9899L32.3105 26.7245L29.5659 21.9709Z" fill="#E2E9EE"/>
<path d="M56.1279 6.63636L52.6348 0.586196C52.3112 0.0256666 51.5944 -0.166411 51.034 0.157273L49.0238 1.31783L48.7021 0.760578C48.3786 0.200166 47.6622 0.00797056 47.1012 0.331655C46.5407 0.655223 46.3486 1.37197 46.6723 1.9325L46.994 2.48975L40.1458 6.44358C39.5852 6.76714 39.3931 7.48389 39.7168 8.04442C40.0405 8.60495 40.7569 8.79715 41.3177 8.47334L51.191 2.773L53.5122 6.79339L25.2422 23.115L22.921 19.0946L32.1837 13.7468C32.7442 13.4232 32.9363 12.7064 32.6126 12.1459C32.2891 11.5854 31.5722 11.3934 31.0118 11.717L10.3446 23.6493C9.15489 24.3361 8.30372 25.4453 7.94816 26.7723C7.5926 28.0993 7.77507 29.4853 8.46205 30.6752L8.52006 30.7756C7.43603 30.3773 6.49662 29.6112 5.90234 28.5816C5.57866 28.0211 4.86203 27.829 4.3015 28.1527C3.74097 28.4763 3.54889 29.193 3.87257 29.7536C4.89226 31.5198 6.60338 32.7586 8.53647 33.224C7.22696 34.5009 6.1931 36.0392 5.50471 37.7506C4.58135 40.0464 4.3213 42.5478 4.7528 44.9843L6.86004 56.8842C7.0745 58.0952 7.868 59.1281 8.98274 59.6474C9.48865 59.8831 10.0329 60 10.5762 60C11.2299 60 11.8822 59.8306 12.4638 59.4947L20.3909 54.918C21.264 54.4139 21.8885 53.6 22.1495 52.6262C22.4105 51.6523 22.2765 50.6352 21.7724 49.7621L18.5277 44.1422C18.0916 43.3869 17.8995 42.5569 17.9254 41.7434L18.2801 42.3576C18.913 43.4538 19.9349 44.2379 21.1576 44.5656C21.5659 44.675 21.9803 44.7292 22.3919 44.7292C23.213 44.7292 24.0234 44.5138 24.7536 44.0923L28.2087 42.0975C29.3049 41.4646 30.089 40.4426 30.4167 39.22C30.7444 37.9972 30.5761 36.7202 29.9432 35.6239L28.5155 33.151L29.3913 32.6454C29.6605 32.49 29.8569 32.234 29.9373 31.9338C30.0178 31.6336 29.9756 31.3136 29.8202 31.0445L29.1586 29.8986L46.2942 20.0054C46.8548 19.6818 47.0468 18.9651 46.7232 18.4046L44.5646 14.6658L55.6989 8.23744C55.9681 8.08204 56.1645 7.82609 56.2449 7.52585C56.3255 7.22537 56.2833 6.90555 56.1279 6.63636ZM10.2122 27.3789C10.4057 26.6566 10.8689 26.053 11.5165 25.679L20.8913 20.2665L22.2145 22.5583L14.7304 26.8793C14.1699 27.2029 13.9778 27.9196 14.3015 28.4801C14.5185 28.8561 14.9124 29.0662 15.3174 29.0662C15.5162 29.0662 15.7178 29.0156 15.9023 28.9091L23.3865 24.5881L24.7096 26.8798L17.2254 31.2008C16.6649 31.5243 16.4728 32.2411 16.7965 32.8016C17.0136 33.1776 17.4074 33.3877 17.8125 33.3877C18.0112 33.3877 18.2128 33.3371 18.3974 33.2305L25.8815 28.9095L27.2047 31.2013L17.8299 36.6139C17.1823 36.9878 16.4279 37.0872 15.7056 36.8935C14.9833 36.7 14.3797 36.2367 14.0057 35.5891L10.4919 29.5031C10.1179 28.8556 10.0186 28.1011 10.2122 27.3789ZM19.7425 50.934C19.9335 51.265 19.9843 51.6504 19.8853 52.0196C19.7864 52.3886 19.5498 52.6971 19.2189 52.8882L11.2918 57.4649C10.8822 57.7013 10.4012 57.7225 9.97242 57.5227C9.54362 57.3229 9.2504 56.9413 9.1679 56.4755L7.06067 44.5756C6.39525 40.8178 7.79488 36.9458 10.6505 34.4656L11.9758 36.7611C12.863 38.2977 14.4288 39.2026 16.0782 39.3183C15.32 41.2093 15.4025 43.4169 16.4979 45.3141L19.7425 50.934ZM27.9135 36.7957C28.5739 37.9395 28.1806 39.4073 27.0368 40.0676L23.5817 42.0624C23.0276 42.3823 22.3822 42.4671 21.7642 42.3017C21.1462 42.1361 20.6296 41.7397 20.3098 41.1858L19.412 39.6306L20.9395 40.04C21.0411 40.0672 21.1432 40.0802 21.2436 40.0802C21.761 40.0802 22.2346 39.7348 22.3749 39.2113C22.5424 38.5861 22.1714 37.9435 21.5462 37.7759L20.8351 37.5854L26.4858 34.3229L27.9135 36.7957ZM27.9868 27.8688L26.4142 25.1449L29.1381 23.5723L30.7107 26.2962L27.9868 27.8688ZM32.7405 25.1242L31.1679 22.4003L42.5349 15.8376L44.1075 18.5615L32.7405 25.1242Z" fill="black"/>
<path d="M13.5439 49.1436C13.2357 49.1436 12.9334 49.2689 12.7154 49.4869C12.4975 49.7049 12.3721 50.0072 12.3721 50.3154C12.3721 50.6236 12.4975 50.926 12.7154 51.1439C12.9334 51.3619 13.2357 51.4873 13.5439 51.4873C13.8521 51.4873 14.1545 51.3619 14.3725 51.1439C14.5904 50.926 14.7158 50.6236 14.7158 50.3154C14.7158 50.0072 14.5904 49.7049 14.3725 49.4869C14.1546 49.2688 13.8523 49.1436 13.5439 49.1436Z" fill="black"/>
<path d="M36.1657 11.2669C36.474 11.2669 36.7751 11.1415 36.9942 10.9235C37.2122 10.7055 37.3376 10.4032 37.3376 10.095C37.3376 9.78678 37.2123 9.48444 36.9942 9.26647C36.7751 9.0485 36.474 8.92311 36.1657 8.92311C35.8563 8.92311 35.5552 9.0485 35.3362 9.26647C35.1182 9.48444 34.9927 9.78678 34.9927 10.095C34.9927 10.4032 35.1181 10.7055 35.3362 10.9235C35.5552 11.1416 35.8563 11.2669 36.1657 11.2669Z" fill="black"/>
</g>
<defs>
<clipPath id="clip0_2_855">
<rect width="60" height="60" fill="white"/>
</clipPath>
</defs>
</svg>
