<svg width="40" height="40" viewBox="0 0 40 40" fill="none" xmlns="http://www.w3.org/2000/svg">
<g clip-path="url(#clip0_2_876)">
<path d="M17.8646 11.4583H22.1354V7.18749H26.4062V2.91663H30.6771H34.9479V7.18749H39.2188V11.4583V15.7291V20H34.9479V24.2708H30.6771V28.5416H26.4062V32.8125H22.1354V37.0833H17.8646V32.8125H13.5938V28.5416H9.32289V24.2708H5.05211V20H0.78125V15.7291V11.4583V7.18749H5.05211V2.91663H9.32289H13.5938V7.18749H17.8646V11.4583Z" fill="#FB0400"/>
<path d="M22.1354 37.8646H17.8646C17.4331 37.8646 17.0834 37.5148 17.0834 37.0833V33.5937H13.5938C13.1623 33.5937 12.8125 33.244 12.8125 32.8125V29.3229H9.32297C8.89148 29.3229 8.54172 28.9731 8.54172 28.5416V25.052H5.05203C4.62055 25.052 4.27078 24.7022 4.27078 24.2708V20.7812H0.78125C0.349766 20.7812 0 20.4315 0 20V7.18749C0 6.756 0.349766 6.40624 0.78125 6.40624H4.27086V2.91663C4.27086 2.48514 4.62063 2.13538 5.05211 2.13538H13.5938C14.0252 2.13538 14.375 2.48514 14.375 2.91663V6.40624H17.8646C18.2961 6.40624 18.6459 6.756 18.6459 7.18749V10.6771H21.3543V7.18749C21.3543 6.756 21.7041 6.40624 22.1355 6.40624H25.625V2.91663C25.625 2.48514 25.9748 2.13538 26.4062 2.13538H34.948C35.3794 2.13538 35.7292 2.48514 35.7292 2.91663V6.40624H39.2188C39.6502 6.40624 40 6.756 40 7.18749V10.0781C40 10.5096 39.6502 10.8594 39.2188 10.8594C38.7873 10.8594 38.4375 10.5096 38.4375 10.0781V7.96874H34.948C34.5165 7.96874 34.1667 7.61897 34.1667 7.18749V3.69788H27.1875V7.18749C27.1875 7.61897 26.8377 7.96874 26.4062 7.96874H22.9167V11.4583C22.9167 11.8898 22.5669 12.2396 22.1355 12.2396H17.8645C17.433 12.2396 17.0833 11.8898 17.0833 11.4583V7.96874H13.5938C13.1623 7.96874 12.8125 7.61897 12.8125 7.18749V3.69788H5.83328V7.18749C5.83328 7.61897 5.48352 7.96874 5.05203 7.96874H1.5625V19.2187H5.05203C5.48352 19.2187 5.83328 19.5685 5.83328 20V23.4896H9.32289C9.75438 23.4896 10.1041 23.8394 10.1041 24.2708V27.7605H13.5938C14.0252 27.7605 14.375 28.1102 14.375 28.5417V32.0312H17.8646C18.2961 32.0312 18.6459 32.381 18.6459 32.8125L18.6459 36.3021H21.3542V32.8125C21.3542 32.381 21.704 32.0312 22.1355 32.0312H25.625V28.5416C25.625 28.1101 25.9748 27.7604 26.4062 27.7604H29.8959V24.2708C29.8959 23.8393 30.2457 23.4895 30.6771 23.4895H34.1667V20C34.1667 19.5685 34.5165 19.2187 34.948 19.2187H38.4375V17.1094C38.4375 16.6779 38.7873 16.3281 39.2188 16.3281C39.6502 16.3281 40 16.6779 40 17.1094V20C40 20.4315 39.6502 20.7812 39.2188 20.7812H35.7292V24.2708C35.7292 24.7023 35.3794 25.0521 34.948 25.0521H31.4584V28.5417C31.4584 28.9732 31.1086 29.323 30.6771 29.323H27.1875V32.8125C27.1875 33.244 26.8377 33.5937 26.4062 33.5937H22.9167L22.9166 37.0833C22.9166 37.5148 22.5668 37.8646 22.1354 37.8646Z" fill="black"/>
<path d="M39.2188 14.375C39.0133 14.375 38.8117 14.2914 38.6664 14.1461C38.5211 14.0008 38.4375 13.7992 38.4375 13.5937C38.4375 13.3883 38.521 13.1867 38.6664 13.0414C38.8117 12.8961 39.0133 12.8125 39.2188 12.8125C39.4242 12.8125 39.6258 12.8961 39.771 13.0414C39.9163 13.1867 40 13.3883 40 13.5937C40 13.7992 39.9164 14.0008 39.771 14.1461C39.6258 14.2914 39.4242 14.375 39.2188 14.375Z" fill="black"/>
</g>
<defs>
<clipPath id="clip0_2_876">
<rect width="40" height="40" fill="white"/>
</clipPath>
</defs>
</svg>
