<svg width="67" height="59" viewBox="0 0 67 59" fill="none" xmlns="http://www.w3.org/2000/svg">
<path fill-rule="evenodd" clip-rule="evenodd" d="M32.0553 58.4608L33.5 55.6719L34.9447 58.4608C34.498 58.6914 34.0027 58.8117 33.5 58.8117C32.9973 58.8117 32.502 58.6914 32.0553 58.4608ZM32.0553 58.4608L33.5 55.6719L34.9447 58.4608L34.9531 58.4566L34.9782 58.444L35.0536 58.4021C35.4917 58.1749 35.9245 57.9375 36.3517 57.6903C41.4537 54.7848 46.2673 51.4 50.7274 47.5816C58.4408 40.9361 67 30.9656 67 19.0312C67 7.87575 58.2649 0.1875 49.2031 0.1875C42.7251 0.1875 37.0468 3.54587 33.5 8.64625C29.9532 3.54587 24.2749 0.1875 17.7969 0.1875C8.73512 0.1875 0 7.87575 0 19.0312C0 30.9656 8.56344 40.9361 16.2684 47.5816C21.1079 51.7187 26.3617 55.3448 31.9464 58.4021L32.0218 58.444L32.0469 58.4566H32.0553V58.4608Z" fill="#CC2424"/>
</svg>
